<?xml version="1.0" standalone="no"?>
<svg xmlns="http://www.w3.org/2000/svg" xmlns:xlink="http://www.w3.org/1999/xlink" width="754pt" height="516pt" viewBox="0.00 0.00 754.24 516.00">
<g id="graph0" class="graph" transform="translate(4,512) scale(1)" data-name="G">

<polygon fill="#2e3e56" stroke="none" points="-4,4 -4,-512 750.24,-512 750.24,4 -4,4" style=""/>
<g id="clust1" class="cluster" data-name="clusterDistributor">

<path fill="#445773" stroke="#445773" d="M20,-8C20,-8 726.24,-8 726.24,-8 732.24,-8 738.24,-14 738.24,-20 738.24,-20 738.24,-351 738.24,-351 738.24,-357 732.24,-363 726.24,-363 726.24,-363 20,-363 20,-363 14,-363 8,-357 8,-351 8,-351 8,-20 8,-20 8,-14 14,-8 20,-8" style=""/>
<text text-anchor="middle" x="373.12" y="-346.4" font-family="Times,serif" font-size="14.00" fill="#f0f0f0" style="">Distributor</text>
</g>
<g id="clust2" class="cluster" data-name="cluster_01">

<polygon fill="#2e3e56" stroke="black" points="25.92,-371 25.92,-500 369.52,-500 369.52,-371 25.92,-371" style=""/>
<text text-anchor="middle" x="197.72" y="-483.4" font-family="Times,serif" font-size="14.00" style="">Legend</text>
</g>
<!-- Distributor.isParamsValid -->
<g id="node1" class="node" pointer-events="visible" data-name="Distributor.isParamsValid">

<polygon fill="#edad56" stroke="#1bc6a6" stroke-width="3" points="171.74,-300.54 171.74,-315.46 129.08,-326 68.75,-326 26.09,-315.46 26.09,-300.54 68.75,-290 129.08,-290 171.74,-300.54" style=""/>
<polygon fill="none" stroke="#1bc6a6" stroke-width="3" points="175.74,-297.41 175.74,-318.59 129.57,-330 68.27,-330 22.09,-318.59 22.09,-297.41 68.27,-286 129.57,-286 175.74,-297.41" style=""/>
<text text-anchor="middle" x="98.92" y="-303.8" font-family="Times,serif" font-size="14.00" style="">isParamsValid</text>
</g>
<!-- Distributor.&lt;Constructor&gt; -->
<g id="node2" class="node" pointer-events="visible" data-name="Distributor.&lt;Constructor&gt;">

<ellipse fill="#ff9797" stroke="#ff9797" stroke-width="3" cx="98.92" cy="-250" rx="67.55" ry="18" style=""/>
<text text-anchor="middle" x="98.92" y="-245.8" font-family="Times,serif" font-size="14.00" style="">&lt;Constructor&gt;</text>
</g>
<!-- Distributor._disableInitializers -->
<g id="node9" class="node" pointer-events="visible" data-name="Distributor._disableInitializers">

<ellipse fill="#edad56" stroke="#edad56" stroke-width="3" cx="334.52" cy="-250" rx="84.52" ry="18" style=""/>
<text text-anchor="middle" x="334.52" y="-245.8" font-family="Times,serif" font-size="14.00" style="">_disableInitializers</text>
</g>
<!-- Distributor.&lt;Constructor&gt;&#45;&gt;Distributor._disableInitializers -->
<g id="edge1" class="edge" data-name="Distributor.&lt;Constructor&gt;-&gt;Distributor._disableInitializers">

<path fill="none" stroke="#1bc6a6" stroke-width="2" d="M167.8,-250C189.07,-250 212.98,-250 235.88,-250" style=""/>
<polygon fill="#1bc6a6" stroke="#1bc6a6" stroke-width="2" points="235.82,-253.5 245.82,-250 235.82,-246.5 235.82,-253.5" style=""/>
</g>
<!-- Distributor.&lt;Receive Ether&gt; -->
<g id="node3" class="node" pointer-events="visible" data-name="Distributor.&lt;Receive Ether&gt;">

<ellipse fill="#ffbdb9" stroke="brown" stroke-width="3" cx="98.92" cy="-196" rx="76.21" ry="18" style=""/>
<text text-anchor="middle" x="98.92" y="-191.8" font-family="Times,serif" font-size="14.00" style="">&lt;Receive Ether&gt;</text>
</g>
<!-- Distributor._msgSender -->
<g id="node10" class="node" pointer-events="visible" data-name="Distributor._msgSender">

<ellipse fill="#edad56" stroke="#edad56" stroke-width="3" cx="334.52" cy="-196" rx="58.56" ry="18" style=""/>
<text text-anchor="middle" x="334.52" y="-191.8" font-family="Times,serif" font-size="14.00" style="">_msgSender</text>
</g>
<!-- Distributor.&lt;Receive Ether&gt;&#45;&gt;Distributor._msgSender -->
<g id="edge2" class="edge" data-name="Distributor.&lt;Receive Ether&gt;-&gt;Distributor._msgSender">

<path fill="none" stroke="#1bc6a6" stroke-width="2" d="M176.41,-196C203.85,-196 234.68,-196 261.71,-196" style=""/>
<polygon fill="#1bc6a6" stroke="#1bc6a6" stroke-width="2" points="261.62,-199.5 271.62,-196 261.62,-192.5 261.62,-199.5" style=""/>
</g>
<!-- Distributor.initialize -->
<g id="node4" class="node" pointer-events="visible" data-name="Distributor.initialize">

<ellipse fill="#ffbdb9" stroke="#ffbdb9" stroke-width="3" cx="98.92" cy="-142" rx="44.64" ry="18" style=""/>
<text text-anchor="middle" x="98.92" y="-137.8" font-family="Times,serif" font-size="14.00" style="">initialize</text>
</g>
<!-- Distributor._transferOwnership -->
<g id="node11" class="node" pointer-events="visible" data-name="Distributor._transferOwnership">

<ellipse fill="#edad56" stroke="#edad56" stroke-width="3" cx="334.52" cy="-142" rx="87.96" ry="18" style=""/>
<text text-anchor="middle" x="334.52" y="-137.8" font-family="Times,serif" font-size="14.00" style="">_transferOwnership</text>
</g>
<!-- Distributor.initialize&#45;&gt;Distributor._transferOwnership -->
<g id="edge3" class="edge" data-name="Distributor.initialize-&gt;Distributor._transferOwnership">

<path fill="none" stroke="#1bc6a6" stroke-width="2" d="M144.96,-142C169.78,-142 201.67,-142 232.14,-142" style=""/>
<polygon fill="#1bc6a6" stroke="#1bc6a6" stroke-width="2" points="232.05,-145.5 242.05,-142 232.05,-138.5 232.05,-145.5" style=""/>
</g>
<!-- Distributor.claim -->
<g id="node5" class="node" pointer-events="visible" data-name="Distributor.claim">

<ellipse fill="#ffbdb9" stroke="#ffbdb9" stroke-width="3" cx="98.92" cy="-88" rx="32.47" ry="18" style=""/>
<text text-anchor="middle" x="98.92" y="-83.8" font-family="Times,serif" font-size="14.00" style="">claim</text>
</g>
<!-- Distributor.calculateClaimableAmount -->
<g id="node7" class="node" pointer-events="visible" data-name="Distributor.calculateClaimableAmount">

<ellipse fill="#edad56" stroke="#edad56" stroke-width="3" cx="334.52" cy="-34" rx="116.88" ry="18" style=""/>
<text text-anchor="middle" x="334.52" y="-29.8" font-family="Times,serif" font-size="14.00" style="">calculateClaimableAmount</text>
</g>
<!-- Distributor.claim&#45;&gt;Distributor.calculateClaimableAmount -->
<g id="edge4" class="edge" data-name="Distributor.claim-&gt;Distributor.calculateClaimableAmount">

<path fill="none" stroke="#1bc6a6" stroke-width="2" d="M130.46,-80.94C161.46,-73.77 210.78,-62.37 253.04,-52.6" style=""/>
<polygon fill="#1bc6a6" stroke="#1bc6a6" stroke-width="2" points="253.72,-56.04 262.67,-50.38 252.14,-49.22 253.72,-56.04" style=""/>
</g>
<!-- Distributor.owner -->
<g id="node12" class="node" pointer-events="visible" data-name="Distributor.owner">

<ellipse fill="#edad56" stroke="#edad56" stroke-width="3" cx="334.52" cy="-88" rx="35.34" ry="18" style=""/>
<text text-anchor="middle" x="334.52" y="-83.8" font-family="Times,serif" font-size="14.00" style="">owner</text>
</g>
<!-- Distributor.claim&#45;&gt;Distributor.owner -->
<g id="edge5" class="edge" data-name="Distributor.claim-&gt;Distributor.owner">

<path fill="none" stroke="#1bc6a6" stroke-width="2" d="M131.42,-83.21C171.21,-80.88 240.03,-80.63 286.16,-82.45" style=""/>
<polygon fill="#1bc6a6" stroke="#1bc6a6" stroke-width="2" points="285.93,-85.94 296.08,-82.91 286.25,-78.95 285.93,-85.94" style=""/>
</g>
<!-- Distributor.claim&#45;&gt;Distributor.owner -->
<g id="edge6" class="edge" data-name="Distributor.claim-&gt;Distributor.owner">

<path fill="none" stroke="#1bc6a6" stroke-width="2" d="M131.42,-92.79C171.21,-95.12 240.03,-95.37 286.16,-93.55" style=""/>
<polygon fill="#1bc6a6" stroke="#1bc6a6" stroke-width="2" points="286.25,-97.05 296.08,-93.09 285.93,-90.06 286.25,-97.05" style=""/>
</g>
<!-- Distributor.updatePoolParams -->
<g id="node6" class="node" pointer-events="visible" data-name="Distributor.updatePoolParams">

<ellipse fill="#ffbdb9" stroke="#ffbdb9" stroke-width="3" cx="98.92" cy="-34" rx="82.83" ry="18" style=""/>
<text text-anchor="middle" x="98.92" y="-29.8" font-family="Times,serif" font-size="14.00" style="">updatePoolParams</text>
</g>
<!-- Distributor._calculateClaimableAmount -->
<g id="node8" class="node" pointer-events="visible" data-name="Distributor._calculateClaimableAmount">

<ellipse fill="#edad56" stroke="#edad56" stroke-width="3" cx="608.72" cy="-34" rx="121.53" ry="18" style=""/>
<text text-anchor="middle" x="608.72" y="-29.8" font-family="Times,serif" font-size="14.00" style="">_calculateClaimableAmount</text>
</g>
<!-- Distributor.calculateClaimableAmount&#45;&gt;Distributor._calculateClaimableAmount -->
<g id="edge7" class="edge" data-name="Distributor.calculateClaimableAmount-&gt;Distributor._calculateClaimableAmount">

<path fill="none" stroke="#1bc6a6" stroke-width="2" d="M452.54,-34C459.39,-34 466.3,-34 473.21,-34" style=""/>
<polygon fill="#1bc6a6" stroke="#1bc6a6" stroke-width="2" points="473.01,-37.5 483.01,-34 473.01,-30.5 473.01,-37.5" style=""/>
</g>
<!-- key -->
<g id="node13" class="node" pointer-events="visible" data-name="key">

<polygon fill="#edad56" stroke="none" stroke-width="3" points="163.92,-467 33.92,-467 33.92,-379 163.92,-379 163.92,-467" style=""/>
<text text-anchor="start" x="83.55" y="-448.4" font-family="Times,serif" font-size="14.00" style="">Internal Call</text>
<text text-anchor="start" x="79.66" y="-428.4" font-family="Times,serif" font-size="14.00" style="">External Call</text>
<text text-anchor="start" x="57.12" y="-408.4" font-family="Times,serif" font-size="14.00" style="">Defined Contract</text>
<text text-anchor="start" x="43.52" y="-388.4" font-family="Times,serif" font-size="14.00" style="">Undefined Contract</text>
</g>
<!-- key2 -->
<g id="node14" class="node" pointer-events="visible" data-name="key2">

<polygon fill="#edad56" stroke="none" stroke-width="3" points="361.52,-467 307.52,-467 307.52,-379 361.52,-379 361.52,-467" style=""/>
<text text-anchor="start" x="324.52" y="-448.4" font-family="Times,serif" font-size="14.00" style="">   </text>
<text text-anchor="start" x="324.52" y="-428.4" font-family="Times,serif" font-size="14.00" style="">   </text>
<polygon fill="#445773" stroke="none" points="322.52,-403 322.52,-423 347.52,-423 347.52,-403 322.52,-403" style=""/>
<text text-anchor="start" x="324.52" y="-408.4" font-family="Times,serif" font-size="14.00" style="">   </text>
<polygon fill="none" stroke="#e8726d" points="324.52,-385 324.52,-401 345.52,-401 345.52,-385 324.52,-385" style=""/>
</g>
<!-- key&#45;&gt;key2 -->
<g id="edge8" class="edge" data-name="key-&gt;key2">

<path fill="none" stroke="#1bc6a6" stroke-width="2" d="M156.92,-453C225.64,-453 245.95,-453 308.81,-453" style=""/>
<polygon fill="#1bc6a6" stroke="#1bc6a6" stroke-width="2" points="308.49,-456.5 318.49,-453 308.49,-449.5 308.49,-456.5" style=""/>
</g>
<!-- key&#45;&gt;key2 -->
<g id="edge9" class="edge" data-name="key-&gt;key2">

<path fill="none" stroke="white" stroke-width="2" d="M156.92,-433C225.64,-433 245.95,-433 308.81,-433" style=""/>
<polygon fill="white" stroke="white" stroke-width="2" points="308.49,-436.5 318.49,-433 308.49,-429.5 308.49,-436.5" style=""/>
</g>
</g>
</svg>