<?xml version="1.0" standalone="no"?>
<svg xmlns="http://www.w3.org/2000/svg" xmlns:xlink="http://www.w3.org/1999/xlink" width="404pt" height="400pt" viewBox="0.00 0.00 404.17 400.00">
<g id="graph0" class="graph" transform="translate(4,396) scale(1)" data-name="G">

<polygon fill="#2e3e56" stroke="none" points="-4,4 -4,-396 400.17,-396 400.17,4 -4,4" style=""/>
<g id="clust1" class="cluster" data-name="clusterLiquidityPool">

<path fill="#445773" stroke="#445773" d="M20,-8C20,-8 376.17,-8 376.17,-8 382.17,-8 388.17,-14 388.17,-20 388.17,-20 388.17,-235 388.17,-235 388.17,-241 382.17,-247 376.17,-247 376.17,-247 20,-247 20,-247 14,-247 8,-241 8,-235 8,-235 8,-20 8,-20 8,-14 14,-8 20,-8" style=""/>
<text text-anchor="middle" x="198.08" y="-230.4" font-family="Times,serif" font-size="14.00" fill="#f0f0f0" style="">LiquidityPool</text>
</g>
<g id="clust2" class="cluster" data-name="cluster_01">

<polygon fill="#2e3e56" stroke="black" points="19.35,-255 19.35,-384 327.44,-384 327.44,-255 19.35,-255" style=""/>
<text text-anchor="middle" x="173.39" y="-367.4" font-family="Times,serif" font-size="14.00" style="">Legend</text>
</g>
<!-- LiquidityPool.&lt;Receive Ether&gt; -->
<g id="node1" class="node" pointer-events="visible" data-name="LiquidityPool.&lt;Receive Ether&gt;">

<ellipse fill="#ffbdb9" stroke="brown" stroke-width="3" cx="92.35" cy="-196" rx="76.21" ry="18" style=""/>
<text text-anchor="middle" x="92.35" y="-191.8" font-family="Times,serif" font-size="14.00" style="">&lt;Receive Ether&gt;</text>
</g>
<!-- LiquidityPool._msgSender -->
<g id="node5" class="node" pointer-events="visible" data-name="LiquidityPool._msgSender">

<ellipse fill="#edad56" stroke="#edad56" stroke-width="3" cx="292.44" cy="-196" rx="58.56" ry="18" style=""/>
<text text-anchor="middle" x="292.44" y="-191.8" font-family="Times,serif" font-size="14.00" style="">_msgSender</text>
</g>
<!-- LiquidityPool.&lt;Receive Ether&gt;&#45;&gt;LiquidityPool._msgSender -->
<g id="edge1" class="edge" data-name="LiquidityPool.&lt;Receive Ether&gt;-&gt;LiquidityPool._msgSender">

<path fill="none" stroke="#1bc6a6" stroke-width="2" d="M169.94,-196C186.35,-196 203.62,-196 219.83,-196" style=""/>
<polygon fill="#1bc6a6" stroke="#1bc6a6" stroke-width="2" points="219.54,-199.5 229.54,-196 219.54,-192.5 219.54,-199.5" style=""/>
</g>
<!-- LiquidityPool.initialize -->
<g id="node2" class="node" pointer-events="visible" data-name="LiquidityPool.initialize">

<ellipse fill="#ffbdb9" stroke="#ffbdb9" stroke-width="3" cx="92.35" cy="-142" rx="44.64" ry="18" style=""/>
<text text-anchor="middle" x="92.35" y="-137.8" font-family="Times,serif" font-size="14.00" style="">initialize</text>
</g>
<!-- LiquidityPool.initialize&#45;&gt;LiquidityPool._msgSender -->
<g id="edge3" class="edge" data-name="LiquidityPool.initialize-&gt;LiquidityPool._msgSender">

<path fill="none" stroke="#1bc6a6" stroke-width="2" d="M131.08,-152.28C160.14,-160.21 200.82,-171.3 233.93,-180.32" style=""/>
<polygon fill="#1bc6a6" stroke="#1bc6a6" stroke-width="2" points="232.72,-183.62 243.29,-182.88 234.57,-176.87 232.72,-183.62" style=""/>
</g>
<!-- LiquidityPool._transferOwnership -->
<g id="node6" class="node" pointer-events="visible" data-name="LiquidityPool._transferOwnership">

<ellipse fill="#edad56" stroke="#edad56" stroke-width="3" cx="292.44" cy="-142" rx="87.96" ry="18" style=""/>
<text text-anchor="middle" x="292.44" y="-137.8" font-family="Times,serif" font-size="14.00" style="">_transferOwnership</text>
</g>
<!-- LiquidityPool.initialize&#45;&gt;LiquidityPool._transferOwnership -->
<g id="edge2" class="edge" data-name="LiquidityPool.initialize-&gt;LiquidityPool._transferOwnership">

<path fill="none" stroke="#1bc6a6" stroke-width="2" d="M138.3,-142C153.9,-142 172.08,-142 190.35,-142" style=""/>
<polygon fill="#1bc6a6" stroke="#1bc6a6" stroke-width="2" points="190.29,-145.5 200.29,-142 190.29,-138.5 190.29,-145.5" style=""/>
</g>
<!-- LiquidityPool.transferFunds -->
<g id="node3" class="node" pointer-events="visible" data-name="LiquidityPool.transferFunds">

<ellipse fill="#ffbdb9" stroke="#ffbdb9" stroke-width="3" cx="92.35" cy="-61" rx="64.28" ry="18" style=""/>
<text text-anchor="middle" x="92.35" y="-56.8" font-family="Times,serif" font-size="14.00" style="">transferFunds</text>
</g>
<!-- LiquidityPool._withdraw -->
<g id="node4" class="node" pointer-events="visible" data-name="LiquidityPool._withdraw">

<ellipse fill="#edad56" stroke="#edad56" stroke-width="3" cx="292.44" cy="-34" rx="52.18" ry="18" style=""/>
<text text-anchor="middle" x="292.44" y="-29.8" font-family="Times,serif" font-size="14.00" style="">_withdraw</text>
</g>
<!-- LiquidityPool.transferFunds&#45;&gt;LiquidityPool._withdraw -->
<g id="edge4" class="edge" data-name="LiquidityPool.transferFunds-&gt;LiquidityPool._withdraw">

<path fill="none" stroke="#1bc6a6" stroke-width="2" d="M152.25,-52.97C176.51,-49.66 204.65,-45.83 229.24,-42.48" style=""/>
<polygon fill="#1bc6a6" stroke="#1bc6a6" stroke-width="2" points="229.68,-45.95 239.12,-41.13 228.74,-39.01 229.68,-45.95" style=""/>
</g>
<!-- LiquidityPool.owner -->
<g id="node7" class="node" pointer-events="visible" data-name="LiquidityPool.owner">

<ellipse fill="#edad56" stroke="#edad56" stroke-width="3" cx="292.44" cy="-88" rx="35.34" ry="18" style=""/>
<text text-anchor="middle" x="292.44" y="-83.8" font-family="Times,serif" font-size="14.00" style="">owner</text>
</g>
<!-- LiquidityPool.transferFunds&#45;&gt;LiquidityPool.owner -->
<g id="edge5" class="edge" data-name="LiquidityPool.transferFunds-&gt;LiquidityPool.owner">

<path fill="none" stroke="#1bc6a6" stroke-width="2" d="M152.25,-69.03C181.55,-73.02 216.5,-77.79 244.05,-81.54" style=""/>
<polygon fill="#1bc6a6" stroke="#1bc6a6" stroke-width="2" points="243.54,-85 253.92,-82.89 244.48,-78.07 243.54,-85" style=""/>
</g>
<!-- key -->
<g id="node8" class="node" pointer-events="visible" data-name="key">

<polygon fill="#edad56" stroke="none" stroke-width="3" points="157.35,-351 27.35,-351 27.35,-263 157.35,-263 157.35,-351" style=""/>
<text text-anchor="start" x="76.99" y="-332.4" font-family="Times,serif" font-size="14.00" style="">Internal Call</text>
<text text-anchor="start" x="73.1" y="-312.4" font-family="Times,serif" font-size="14.00" style="">External Call</text>
<text text-anchor="start" x="50.56" y="-292.4" font-family="Times,serif" font-size="14.00" style="">Defined Contract</text>
<text text-anchor="start" x="36.95" y="-272.4" font-family="Times,serif" font-size="14.00" style="">Undefined Contract</text>
</g>
<!-- key2 -->
<g id="node9" class="node" pointer-events="visible" data-name="key2">

<polygon fill="#edad56" stroke="none" stroke-width="3" points="319.44,-351 265.44,-351 265.44,-263 319.44,-263 319.44,-351" style=""/>
<text text-anchor="start" x="282.44" y="-332.4" font-family="Times,serif" font-size="14.00" style="">   </text>
<text text-anchor="start" x="282.44" y="-312.4" font-family="Times,serif" font-size="14.00" style="">   </text>
<polygon fill="#445773" stroke="none" points="280.44,-287 280.44,-307 305.44,-307 305.44,-287 280.44,-287" style=""/>
<text text-anchor="start" x="282.44" y="-292.4" font-family="Times,serif" font-size="14.00" style="">   </text>
<polygon fill="none" stroke="#e8726d" points="282.44,-269 282.44,-285 303.44,-285 303.44,-269 282.44,-269" style=""/>
</g>
<!-- key&#45;&gt;key2 -->
<g id="edge6" class="edge" data-name="key-&gt;key2">

<path fill="none" stroke="#1bc6a6" stroke-width="2" d="M150.35,-337C203.13,-337 219.49,-337 266.44,-337" style=""/>
<polygon fill="#1bc6a6" stroke="#1bc6a6" stroke-width="2" points="266.41,-340.5 276.41,-337 266.41,-333.5 266.41,-340.5" style=""/>
</g>
<!-- key&#45;&gt;key2 -->
<g id="edge7" class="edge" data-name="key-&gt;key2">

<path fill="none" stroke="white" stroke-width="2" d="M150.35,-317C203.13,-317 219.49,-317 266.44,-317" style=""/>
<polygon fill="white" stroke="white" stroke-width="2" points="266.41,-320.5 276.41,-317 266.41,-313.5 266.41,-320.5" style=""/>
</g>
</g>
</svg>