<?xml version="1.0" standalone="no"?>
<svg xmlns="http://www.w3.org/2000/svg" xmlns:xlink="http://www.w3.org/1999/xlink" width="535pt" height="400pt" viewBox="0.00 0.00 535.17 400.00">
<g id="graph0" class="graph" transform="translate(4,396) scale(1)" data-name="G">

<polygon fill="#2e3e56" stroke="none" points="-4,4 -4,-396 531.17,-396 531.17,4 -4,4" style=""/>
<g id="clust1" class="cluster" data-name="clusterStrategicPool">

<path fill="#445773" stroke="#445773" d="M20,-8C20,-8 402.17,-8 402.17,-8 408.17,-8 414.17,-14 414.17,-20 414.17,-20 414.17,-235 414.17,-235 414.17,-241 408.17,-247 402.17,-247 402.17,-247 20,-247 20,-247 14,-247 8,-241 8,-235 8,-235 8,-20 8,-20 8,-14 14,-8 20,-8" style=""/>
<text text-anchor="middle" x="211.08" y="-230.4" font-family="Times,serif" font-size="14.00" fill="#f0f0f0" style="">StrategicPool</text>
</g>
<g id="clust2" class="cluster" data-name="clusterTrigonometry">

<path fill="#3b4b63" stroke="#e8726d" stroke-dasharray="5,2" d="M446.17,-62C446.17,-62 515.17,-62 515.17,-62 521.17,-62 527.17,-68 527.17,-74 527.17,-74 527.17,-127 527.17,-127 527.17,-133 521.17,-139 515.17,-139 515.17,-139 446.17,-139 446.17,-139 440.17,-139 434.17,-133 434.17,-127 434.17,-127 434.17,-74 434.17,-74 434.17,-68 440.17,-62 446.17,-62" style=""/>
<text text-anchor="middle" x="480.67" y="-122.4" font-family="Times,serif" font-size="14.00" fill="#f0f0f0" style="">Trigonometry</text>
</g>
<g id="clust3" class="cluster" data-name="cluster_01">

<polygon fill="#2e3e56" stroke="black" points="23.77,-255 23.77,-384 344.86,-384 344.86,-255 23.77,-255" style=""/>
<text text-anchor="middle" x="184.31" y="-367.4" font-family="Times,serif" font-size="14.00" style="">Legend</text>
</g>
<!-- StrategicPool.&lt;Receive Ether&gt; -->
<g id="node1" class="node" pointer-events="visible" data-name="StrategicPool.&lt;Receive Ether&gt;">

<ellipse fill="#ffbdb9" stroke="brown" stroke-width="3" cx="96.77" cy="-196" rx="76.21" ry="18" style=""/>
<text text-anchor="middle" x="96.77" y="-191.8" font-family="Times,serif" font-size="14.00" style="">&lt;Receive Ether&gt;</text>
</g>
<!-- StrategicPool._msgSender -->
<g id="node6" class="node" pointer-events="visible" data-name="StrategicPool._msgSender">

<ellipse fill="#edad56" stroke="#edad56" stroke-width="3" cx="309.86" cy="-196" rx="58.56" ry="18" style=""/>
<text text-anchor="middle" x="309.86" y="-191.8" font-family="Times,serif" font-size="14.00" style="">_msgSender</text>
</g>
<!-- StrategicPool.&lt;Receive Ether&gt;&#45;&gt;StrategicPool._msgSender -->
<g id="edge1" class="edge" data-name="StrategicPool.&lt;Receive Ether&gt;-&gt;StrategicPool._msgSender">

<path fill="none" stroke="#1bc6a6" stroke-width="2" d="M174.28,-196C194.7,-196 216.69,-196 236.86,-196" style=""/>
<polygon fill="#1bc6a6" stroke="#1bc6a6" stroke-width="2" points="236.79,-199.5 246.79,-196 236.79,-192.5 236.79,-199.5" style=""/>
</g>
<!-- StrategicPool.initialize -->
<g id="node2" class="node" pointer-events="visible" data-name="StrategicPool.initialize">

<ellipse fill="#ffbdb9" stroke="#ffbdb9" stroke-width="3" cx="96.77" cy="-142" rx="44.64" ry="18" style=""/>
<text text-anchor="middle" x="96.77" y="-137.8" font-family="Times,serif" font-size="14.00" style="">initialize</text>
</g>
<!-- StrategicPool.initialize&#45;&gt;StrategicPool._msgSender -->
<g id="edge3" class="edge" data-name="StrategicPool.initialize-&gt;StrategicPool._msgSender">

<path fill="none" stroke="#1bc6a6" stroke-width="2" d="M136.49,-151.9C168.32,-160.05 213.93,-171.72 250.24,-181.01" style=""/>
<polygon fill="#1bc6a6" stroke="#1bc6a6" stroke-width="2" points="249.17,-184.34 259.73,-183.43 250.91,-177.56 249.17,-184.34" style=""/>
</g>
<!-- StrategicPool._transferOwnership -->
<g id="node7" class="node" pointer-events="visible" data-name="StrategicPool._transferOwnership">

<ellipse fill="#edad56" stroke="#edad56" stroke-width="3" cx="309.86" cy="-142" rx="87.96" ry="18" style=""/>
<text text-anchor="middle" x="309.86" y="-137.8" font-family="Times,serif" font-size="14.00" style="">_transferOwnership</text>
</g>
<!-- StrategicPool.initialize&#45;&gt;StrategicPool._transferOwnership -->
<g id="edge2" class="edge" data-name="StrategicPool.initialize-&gt;StrategicPool._transferOwnership">

<path fill="none" stroke="#1bc6a6" stroke-width="2" d="M142.8,-142C161.81,-142 184.79,-142 207.5,-142" style=""/>
<polygon fill="#1bc6a6" stroke="#1bc6a6" stroke-width="2" points="207.41,-145.5 217.41,-142 207.41,-138.5 207.41,-145.5" style=""/>
</g>
<!-- StrategicPool.burnWithFormula -->
<g id="node3" class="node" pointer-events="visible" data-name="StrategicPool.burnWithFormula">

<ellipse fill="#ffbdb9" stroke="#ffbdb9" stroke-width="3" cx="96.77" cy="-88" rx="80.54" ry="18" style=""/>
<text text-anchor="middle" x="96.77" y="-83.8" font-family="Times,serif" font-size="14.00" style="">burnWithFormula</text>
</g>
<!-- StrategicPool.calculateBurnAmount -->
<g id="node5" class="node" pointer-events="visible" data-name="StrategicPool.calculateBurnAmount">

<ellipse fill="#edad56" stroke="#edad56" stroke-width="3" cx="309.86" cy="-88" rx="96.13" ry="18" style=""/>
<text text-anchor="middle" x="309.86" y="-83.8" font-family="Times,serif" font-size="14.00" style="">calculateBurnAmount</text>
</g>
<!-- StrategicPool.burnWithFormula&#45;&gt;StrategicPool.calculateBurnAmount -->
<g id="edge4" class="edge" data-name="StrategicPool.burnWithFormula-&gt;StrategicPool.calculateBurnAmount">

<path fill="none" stroke="#1bc6a6" stroke-width="2" d="M178.78,-88C185.59,-88 192.56,-88 199.54,-88" style=""/>
<polygon fill="#1bc6a6" stroke="#1bc6a6" stroke-width="2" points="199.5,-91.5 209.5,-88 199.5,-84.5 199.5,-91.5" style=""/>
</g>
<!-- StrategicPool.burn -->
<g id="node4" class="node" pointer-events="visible" data-name="StrategicPool.burn">

<ellipse fill="#ffbdb9" stroke="#ffbdb9" stroke-width="3" cx="96.77" cy="-34" rx="28.98" ry="18" style=""/>
<text text-anchor="middle" x="96.77" y="-29.8" font-family="Times,serif" font-size="14.00" style="">burn</text>
</g>
<!-- Trigonometry.cos -->
<g id="node8" class="node" pointer-events="visible" data-name="Trigonometry.cos">

<ellipse fill="#edad56" stroke="#edad56" stroke-width="3" cx="480.17" cy="-88" rx="27" ry="18" style=""/>
<text text-anchor="middle" x="480.17" y="-83.8" font-family="Times,serif" font-size="14.00" style="">cos</text>
</g>
<!-- StrategicPool.calculateBurnAmount&#45;&gt;Trigonometry.cos -->
<g id="edge5" class="edge" data-name="StrategicPool.calculateBurnAmount-&gt;Trigonometry.cos">

<path fill="none" stroke="white" stroke-width="2" d="M407.3,-88C418.38,-88 429.18,-88 438.89,-88" style=""/>
<polygon fill="white" stroke="white" stroke-width="2" points="438.78,-91.5 448.78,-88 438.78,-84.5 438.78,-91.5" style=""/>
</g>
<!-- key -->
<g id="node9" class="node" pointer-events="visible" data-name="key">

<polygon fill="#edad56" stroke="none" stroke-width="3" points="161.77,-351 31.77,-351 31.77,-263 161.77,-263 161.77,-351" style=""/>
<text text-anchor="start" x="81.41" y="-332.4" font-family="Times,serif" font-size="14.00" style="">Internal Call</text>
<text text-anchor="start" x="77.52" y="-312.4" font-family="Times,serif" font-size="14.00" style="">External Call</text>
<text text-anchor="start" x="54.97" y="-292.4" font-family="Times,serif" font-size="14.00" style="">Defined Contract</text>
<text text-anchor="start" x="41.37" y="-272.4" font-family="Times,serif" font-size="14.00" style="">Undefined Contract</text>
</g>
<!-- key2 -->
<g id="node10" class="node" pointer-events="visible" data-name="key2">

<polygon fill="#edad56" stroke="none" stroke-width="3" points="336.86,-351 282.86,-351 282.86,-263 336.86,-263 336.86,-351" style=""/>
<text text-anchor="start" x="299.86" y="-332.4" font-family="Times,serif" font-size="14.00" style="">   </text>
<text text-anchor="start" x="299.86" y="-312.4" font-family="Times,serif" font-size="14.00" style="">   </text>
<polygon fill="#445773" stroke="none" points="297.86,-287 297.86,-307 322.86,-307 322.86,-287 297.86,-287" style=""/>
<text text-anchor="start" x="299.86" y="-292.4" font-family="Times,serif" font-size="14.00" style="">   </text>
<polygon fill="none" stroke="#e8726d" points="299.86,-269 299.86,-285 320.86,-285 320.86,-269 299.86,-269" style=""/>
</g>
<!-- key&#45;&gt;key2 -->
<g id="edge6" class="edge" data-name="key-&gt;key2">

<path fill="none" stroke="#1bc6a6" stroke-width="2" d="M154.77,-337C213.36,-337 231.18,-337 283.87,-337" style=""/>
<polygon fill="#1bc6a6" stroke="#1bc6a6" stroke-width="2" points="283.83,-340.5 293.83,-337 283.83,-333.5 283.83,-340.5" style=""/>
</g>
<!-- key&#45;&gt;key2 -->
<g id="edge7" class="edge" data-name="key-&gt;key2">

<path fill="none" stroke="white" stroke-width="2" d="M154.77,-317C213.36,-317 231.18,-317 283.87,-317" style=""/>
<polygon fill="white" stroke="white" stroke-width="2" points="283.83,-320.5 293.83,-317 283.83,-313.5 283.83,-320.5" style=""/>
</g>
</g>
</svg>