<?xml version="1.0" standalone="no"?>
<svg xmlns="http://www.w3.org/2000/svg" xmlns:xlink="http://www.w3.org/1999/xlink" width="445pt" height="516pt" viewBox="0.00 0.00 445.19 516.00">
<g id="graph0" class="graph" transform="translate(4,512) scale(1)" data-name="G">

<polygon fill="#2e3e56" stroke="none" points="-4,4 -4,-512 441.19,-512 441.19,4 -4,4" style=""/>
<g id="clust1" class="cluster" data-name="clusterTokenDistributorWithNoVesting">

<path fill="#445773" stroke="#445773" d="M20,-8C20,-8 417.19,-8 417.19,-8 423.19,-8 429.19,-14 429.19,-20 429.19,-20 429.19,-351 429.19,-351 429.19,-357 423.19,-363 417.19,-363 417.19,-363 20,-363 20,-363 14,-363 8,-357 8,-351 8,-351 8,-20 8,-20 8,-14 14,-8 20,-8" style=""/>
<text text-anchor="middle" x="218.6" y="-346.4" font-family="Times,serif" font-size="14.00" fill="#f0f0f0" style="">TokenDistributorWithNoVesting</text>
</g>
<g id="clust2" class="cluster" data-name="cluster_01">

<polygon fill="#2e3e56" stroke="black" points="39.86,-371 39.86,-500 368.46,-500 368.46,-371 39.86,-371" style=""/>
<text text-anchor="middle" x="204.16" y="-483.4" font-family="Times,serif" font-size="14.00" style="">Legend</text>
</g>
<!-- TokenDistributorWithNoVesting.&lt;Receive Ether&gt; -->
<g id="node1" class="node" pointer-events="visible" data-name="TokenDistributorWithNoVesting.&lt;Receive Ether&gt;">

<ellipse fill="#ffbdb9" stroke="brown" stroke-width="3" cx="112.86" cy="-258" rx="76.21" ry="18" style=""/>
<text text-anchor="middle" x="112.86" y="-253.8" font-family="Times,serif" font-size="14.00" style="">&lt;Receive Ether&gt;</text>
</g>
<!-- TokenDistributorWithNoVesting._msgSender -->
<g id="node7" class="node" pointer-events="visible" data-name="TokenDistributorWithNoVesting._msgSender">

<ellipse fill="#edad56" stroke="#edad56" stroke-width="3" cx="333.46" cy="-88" rx="58.56" ry="18" style=""/>
<text text-anchor="middle" x="333.46" y="-83.8" font-family="Times,serif" font-size="14.00" style="">_msgSender</text>
</g>
<!-- TokenDistributorWithNoVesting.&lt;Receive Ether&gt;&#45;&gt;TokenDistributorWithNoVesting._msgSender -->
<g id="edge1" class="edge" data-name="TokenDistributorWithNoVesting.&lt;Receive Ether&gt;-&gt;TokenDistributorWithNoVesting._msgSender">

<path fill="none" stroke="#1bc6a6" stroke-width="2" d="M175.23,-246.51C187.23,-242.69 199.31,-237.65 209.73,-231 255.62,-201.72 293.7,-150.09 314.74,-117.54" style=""/>
<polygon fill="#1bc6a6" stroke="#1bc6a6" stroke-width="2" points="317.47,-119.77 319.84,-109.45 311.55,-116.04 317.47,-119.77" style=""/>
</g>
<!-- TokenDistributorWithNoVesting.initialize -->
<g id="node2" class="node" pointer-events="visible" data-name="TokenDistributorWithNoVesting.initialize">

<ellipse fill="#ffbdb9" stroke="#ffbdb9" stroke-width="3" cx="112.86" cy="-312" rx="44.64" ry="18" style=""/>
<text text-anchor="middle" x="112.86" y="-307.8" font-family="Times,serif" font-size="14.00" style="">initialize</text>
</g>
<!-- TokenDistributorWithNoVesting.initialize&#45;&gt;TokenDistributorWithNoVesting._msgSender -->
<g id="edge3" class="edge" data-name="TokenDistributorWithNoVesting.initialize-&gt;TokenDistributorWithNoVesting._msgSender">

<path fill="none" stroke="#1bc6a6" stroke-width="2" d="M157,-306.82C174.68,-303.01 194.52,-296.42 209.73,-285 267.23,-241.82 304.21,-163.11 321.33,-119.39" style=""/>
<polygon fill="#1bc6a6" stroke="#1bc6a6" stroke-width="2" points="324.58,-120.7 324.84,-110.1 318.03,-118.22 324.58,-120.7" style=""/>
</g>
<!-- TokenDistributorWithNoVesting._transferOwnership -->
<g id="node8" class="node" pointer-events="visible" data-name="TokenDistributorWithNoVesting._transferOwnership">

<ellipse fill="#edad56" stroke="#edad56" stroke-width="3" cx="333.46" cy="-312" rx="87.96" ry="18" style=""/>
<text text-anchor="middle" x="333.46" y="-307.8" font-family="Times,serif" font-size="14.00" style="">_transferOwnership</text>
</g>
<!-- TokenDistributorWithNoVesting.initialize&#45;&gt;TokenDistributorWithNoVesting._transferOwnership -->
<g id="edge2" class="edge" data-name="TokenDistributorWithNoVesting.initialize-&gt;TokenDistributorWithNoVesting._transferOwnership">

<path fill="none" stroke="#1bc6a6" stroke-width="2" d="M158.89,-312C179.96,-312 205.96,-312 231.36,-312" style=""/>
<polygon fill="#1bc6a6" stroke="#1bc6a6" stroke-width="2" points="231.14,-315.5 241.14,-312 231.14,-308.5 231.14,-315.5" style=""/>
</g>
<!-- TokenDistributorWithNoVesting.isSettable -->
<g id="node3" class="node" pointer-events="visible" data-name="TokenDistributorWithNoVesting.isSettable">

<polygon fill="#edad56" stroke="#1bc6a6" stroke-width="3" points="165.53,-192.54 165.53,-207.46 134.68,-218 91.05,-218 60.2,-207.46 60.2,-192.54 91.05,-182 134.68,-182 165.53,-192.54" style=""/>
<polygon fill="none" stroke="#1bc6a6" stroke-width="3" points="169.54,-189.69 169.54,-210.31 135.35,-222 90.38,-222 56.19,-210.31 56.19,-189.69 90.38,-178 135.35,-178 169.54,-189.69" style=""/>
<text text-anchor="middle" x="112.86" y="-195.8" font-family="Times,serif" font-size="14.00" style="">isSettable</text>
</g>
<!-- TokenDistributorWithNoVesting.setClaimableAmounts -->
<g id="node4" class="node" pointer-events="visible" data-name="TokenDistributorWithNoVesting.setClaimableAmounts">

<ellipse fill="#ffbdb9" stroke="#ffbdb9" stroke-width="3" cx="112.86" cy="-142" rx="96.73" ry="18" style=""/>
<text text-anchor="middle" x="112.86" y="-137.8" font-family="Times,serif" font-size="14.00" style="">setClaimableAmounts</text>
</g>
<!-- TokenDistributorWithNoVesting.claim -->
<g id="node5" class="node" pointer-events="visible" data-name="TokenDistributorWithNoVesting.claim">

<ellipse fill="#ffbdb9" stroke="#ffbdb9" stroke-width="3" cx="112.86" cy="-88" rx="32.47" ry="18" style=""/>
<text text-anchor="middle" x="112.86" y="-83.8" font-family="Times,serif" font-size="14.00" style="">claim</text>
</g>
<!-- TokenDistributorWithNoVesting.claim&#45;&gt;TokenDistributorWithNoVesting._msgSender -->
<g id="edge4" class="edge" data-name="TokenDistributorWithNoVesting.claim-&gt;TokenDistributorWithNoVesting._msgSender">

<path fill="none" stroke="#1bc6a6" stroke-width="2" d="M137.67,-74.8C172.62,-66.99 238.57,-65.67 283.98,-70.84" style=""/>
<polygon fill="#1bc6a6" stroke="#1bc6a6" stroke-width="2" points="283.4,-74.3 293.77,-72.16 284.33,-67.36 283.4,-74.3" style=""/>
</g>
<!-- TokenDistributorWithNoVesting.claim&#45;&gt;TokenDistributorWithNoVesting._msgSender -->
<g id="edge5" class="edge" data-name="TokenDistributorWithNoVesting.claim-&gt;TokenDistributorWithNoVesting._msgSender">

<path fill="none" stroke="#1bc6a6" stroke-width="2" d="M145.65,-83.07C176.46,-81.27 224.21,-80.8 263.72,-81.68" style=""/>
<polygon fill="#1bc6a6" stroke="#1bc6a6" stroke-width="2" points="263.38,-85.17 273.47,-81.94 263.56,-78.18 263.38,-85.17" style=""/>
</g>
<!-- TokenDistributorWithNoVesting.claim&#45;&gt;TokenDistributorWithNoVesting._msgSender -->
<g id="edge6" class="edge" data-name="TokenDistributorWithNoVesting.claim-&gt;TokenDistributorWithNoVesting._msgSender">

<path fill="none" stroke="#1bc6a6" stroke-width="2" d="M145.65,-92.93C176.46,-94.73 224.21,-95.2 263.72,-94.32" style=""/>
<polygon fill="#1bc6a6" stroke="#1bc6a6" stroke-width="2" points="263.56,-97.82 273.47,-94.06 263.38,-90.83 263.56,-97.82" style=""/>
</g>
<!-- TokenDistributorWithNoVesting.claim&#45;&gt;TokenDistributorWithNoVesting._msgSender -->
<g id="edge7" class="edge" data-name="TokenDistributorWithNoVesting.claim-&gt;TokenDistributorWithNoVesting._msgSender">

<path fill="none" stroke="#1bc6a6" stroke-width="2" d="M137.67,-101.2C172.62,-109.01 238.57,-110.33 283.98,-105.16" style=""/>
<polygon fill="#1bc6a6" stroke="#1bc6a6" stroke-width="2" points="284.33,-108.64 293.77,-103.84 283.4,-101.7 284.33,-108.64" style=""/>
</g>
<!-- TokenDistributorWithNoVesting.sweep -->
<g id="node6" class="node" pointer-events="visible" data-name="TokenDistributorWithNoVesting.sweep">

<ellipse fill="#ffbdb9" stroke="#ffbdb9" stroke-width="3" cx="112.86" cy="-34" rx="35.34" ry="18" style=""/>
<text text-anchor="middle" x="112.86" y="-29.8" font-family="Times,serif" font-size="14.00" style="">sweep</text>
</g>
<!-- TokenDistributorWithNoVesting.owner -->
<g id="node9" class="node" pointer-events="visible" data-name="TokenDistributorWithNoVesting.owner">

<ellipse fill="#edad56" stroke="#edad56" stroke-width="3" cx="333.46" cy="-34" rx="35.34" ry="18" style=""/>
<text text-anchor="middle" x="333.46" y="-29.8" font-family="Times,serif" font-size="14.00" style="">owner</text>
</g>
<!-- TokenDistributorWithNoVesting.sweep&#45;&gt;TokenDistributorWithNoVesting.owner -->
<g id="edge8" class="edge" data-name="TokenDistributorWithNoVesting.sweep-&gt;TokenDistributorWithNoVesting.owner">

<path fill="none" stroke="#1bc6a6" stroke-width="2" d="M148.02,-28.94C184.89,-26.91 243.86,-26.71 285.18,-28.33" style=""/>
<polygon fill="#1bc6a6" stroke="#1bc6a6" stroke-width="2" points="285.01,-31.82 295.16,-28.79 285.33,-24.83 285.01,-31.82" style=""/>
</g>
<!-- TokenDistributorWithNoVesting.sweep&#45;&gt;TokenDistributorWithNoVesting.owner -->
<g id="edge9" class="edge" data-name="TokenDistributorWithNoVesting.sweep-&gt;TokenDistributorWithNoVesting.owner">

<path fill="none" stroke="#1bc6a6" stroke-width="2" d="M148.02,-39.06C184.89,-41.09 243.86,-41.29 285.18,-39.67" style=""/>
<polygon fill="#1bc6a6" stroke="#1bc6a6" stroke-width="2" points="285.33,-43.17 295.16,-39.21 285.01,-36.18 285.33,-43.17" style=""/>
</g>
<!-- key -->
<g id="node10" class="node" pointer-events="visible" data-name="key">

<polygon fill="#edad56" stroke="none" stroke-width="3" points="177.86,-467 47.86,-467 47.86,-379 177.86,-379 177.86,-467" style=""/>
<text text-anchor="start" x="97.5" y="-448.4" font-family="Times,serif" font-size="14.00" style="">Internal Call</text>
<text text-anchor="start" x="93.61" y="-428.4" font-family="Times,serif" font-size="14.00" style="">External Call</text>
<text text-anchor="start" x="71.07" y="-408.4" font-family="Times,serif" font-size="14.00" style="">Defined Contract</text>
<text text-anchor="start" x="57.47" y="-388.4" font-family="Times,serif" font-size="14.00" style="">Undefined Contract</text>
</g>
<!-- key2 -->
<g id="node11" class="node" pointer-events="visible" data-name="key2">

<polygon fill="#edad56" stroke="none" stroke-width="3" points="360.46,-467 306.46,-467 306.46,-379 360.46,-379 360.46,-467" style=""/>
<text text-anchor="start" x="323.46" y="-448.4" font-family="Times,serif" font-size="14.00" style="">   </text>
<text text-anchor="start" x="323.46" y="-428.4" font-family="Times,serif" font-size="14.00" style="">   </text>
<polygon fill="#445773" stroke="none" points="321.46,-403 321.46,-423 346.46,-423 346.46,-403 321.46,-403" style=""/>
<text text-anchor="start" x="323.46" y="-408.4" font-family="Times,serif" font-size="14.00" style="">   </text>
<polygon fill="none" stroke="#e8726d" points="323.46,-385 323.46,-401 344.46,-401 344.46,-385 323.46,-385" style=""/>
</g>
<!-- key&#45;&gt;key2 -->
<g id="edge10" class="edge" data-name="key-&gt;key2">

<path fill="none" stroke="#1bc6a6" stroke-width="2" d="M170.86,-453C232.81,-453 251.47,-453 307.49,-453" style=""/>
<polygon fill="#1bc6a6" stroke="#1bc6a6" stroke-width="2" points="307.43,-456.5 317.43,-453 307.43,-449.5 307.43,-456.5" style=""/>
</g>
<!-- key&#45;&gt;key2 -->
<g id="edge11" class="edge" data-name="key-&gt;key2">

<path fill="none" stroke="white" stroke-width="2" d="M170.86,-433C232.81,-433 251.47,-433 307.49,-433" style=""/>
<polygon fill="white" stroke="white" stroke-width="2" points="307.43,-436.5 317.43,-433 307.43,-429.5 307.43,-436.5" style=""/>
</g>
</g>
</svg>