<?xml version="1.0" standalone="no"?>
<svg xmlns="http://www.w3.org/2000/svg" xmlns:xlink="http://www.w3.org/1999/xlink" width="260pt" height="238pt" viewBox="0.00 0.00 260.00 238.00">
<g id="graph0" class="graph" transform="translate(4,234) scale(1)" data-name="G">

<polygon fill="#2e3e56" stroke="none" points="-4,4 -4,-234 256,-234 256,4 -4,4" style=""/>
<g id="clust1" class="cluster" data-name="clusterTrigonometry">

<path fill="#445773" stroke="#445773" d="M58,-8C58,-8 232,-8 232,-8 238,-8 244,-14 244,-20 244,-20 244,-73 244,-73 244,-79 238,-85 232,-85 232,-85 58,-85 58,-85 52,-85 46,-79 46,-73 46,-73 46,-20 46,-20 46,-14 52,-8 58,-8" style=""/>
<text text-anchor="middle" x="145" y="-68.4" font-family="Times,serif" font-size="14.00" fill="#f0f0f0" style="">Trigonometry  (lib)</text>
</g>
<g id="clust2" class="cluster" data-name="cluster_01">

<polygon fill="#2e3e56" stroke="black" points="8,-93 8,-222 244,-222 244,-93 8,-93" style=""/>
<text text-anchor="middle" x="126" y="-205.4" font-family="Times,serif" font-size="14.00" style="">Legend</text>
</g>
<!-- Trigonometry.sin -->
<g id="node1" class="node" pointer-events="visible" data-name="Trigonometry.sin">

<ellipse fill="#edad56" stroke="#edad56" stroke-width="3" cx="209" cy="-34" rx="27" ry="18" style=""/>
<text text-anchor="middle" x="209" y="-29.8" font-family="Times,serif" font-size="14.00" style="">sin</text>
</g>
<!-- Trigonometry.cos -->
<g id="node2" class="node" pointer-events="visible" data-name="Trigonometry.cos">

<ellipse fill="#f2c383" stroke="#f2c383" stroke-width="3" cx="81" cy="-34" rx="27" ry="18" style=""/>
<text text-anchor="middle" x="81" y="-29.8" font-family="Times,serif" font-size="14.00" style="">cos</text>
</g>
<!-- Trigonometry.cos&#45;&gt;Trigonometry.sin -->
<g id="edge1" class="edge" data-name="Trigonometry.cos-&gt;Trigonometry.sin">

<path fill="none" stroke="#1bc6a6" stroke-width="2" d="M109.34,-34C126.43,-34 148.74,-34 167.82,-34" style=""/>
<polygon fill="#1bc6a6" stroke="#1bc6a6" stroke-width="2" points="167.69,-37.5 177.69,-34 167.69,-30.5 167.69,-37.5" style=""/>
</g>
<!-- key -->
<g id="node3" class="node" pointer-events="visible" data-name="key">

<polygon fill="#edad56" stroke="none" stroke-width="3" points="146,-189 16,-189 16,-101 146,-101 146,-189" style=""/>
<text text-anchor="start" x="65.64" y="-170.4" font-family="Times,serif" font-size="14.00" style="">Internal Call</text>
<text text-anchor="start" x="61.75" y="-150.4" font-family="Times,serif" font-size="14.00" style="">External Call</text>
<text text-anchor="start" x="39.2" y="-130.4" font-family="Times,serif" font-size="14.00" style="">Defined Contract</text>
<text text-anchor="start" x="25.6" y="-110.4" font-family="Times,serif" font-size="14.00" style="">Undefined Contract</text>
</g>
<!-- key2 -->
<g id="node4" class="node" pointer-events="visible" data-name="key2">

<polygon fill="#edad56" stroke="none" stroke-width="3" points="236,-189 182,-189 182,-101 236,-101 236,-189" style=""/>
<text text-anchor="start" x="199" y="-170.4" font-family="Times,serif" font-size="14.00" style="">   </text>
<text text-anchor="start" x="199" y="-150.4" font-family="Times,serif" font-size="14.00" style="">   </text>
<polygon fill="#445773" stroke="none" points="197,-125 197,-145 222,-145 222,-125 197,-125" style=""/>
<text text-anchor="start" x="199" y="-130.4" font-family="Times,serif" font-size="14.00" style="">   </text>
<polygon fill="none" stroke="#e8726d" points="199,-107 199,-123 220,-123 220,-107 199,-107" style=""/>
</g>
<!-- key&#45;&gt;key2 -->
<g id="edge2" class="edge" data-name="key-&gt;key2">

<path fill="none" stroke="#1bc6a6" stroke-width="2" d="M139,-175C159.39,-175 167.47,-175 183.05,-175" style=""/>
<polygon fill="#1bc6a6" stroke="#1bc6a6" stroke-width="2" points="182.97,-178.5 192.97,-175 182.97,-171.5 182.97,-178.5" style=""/>
</g>
<!-- key&#45;&gt;key2 -->
<g id="edge3" class="edge" data-name="key-&gt;key2">

<path fill="none" stroke="white" stroke-width="2" d="M139,-155C159.39,-155 167.47,-155 183.05,-155" style=""/>
<polygon fill="white" stroke="white" stroke-width="2" points="182.97,-158.5 192.97,-155 182.97,-151.5 182.97,-158.5" style=""/>
</g>
</g>
</svg>